<?xml version="1.0" encoding="UTF-8"?>
<svg id="OBJECTS" xmlns="http://www.w3.org/2000/svg" xmlns:xlink="http://www.w3.org/1999/xlink" viewBox="0 0 500 500">
  <defs>
    <style>
      .cls-1 {
        fill: url(#linear-gradient);
      }

      .cls-1, .cls-2 {
        stroke-width: 0px;
      }

      .cls-2 {
        fill: #3a053d;
      }
    </style>
    <linearGradient id="linear-gradient" x1="108.04" y1="150.92" x2="292.67" y2="150.92" gradientUnits="userSpaceOnUse">
      <stop offset=".14" stop-color="#cc009c"/>
      <stop offset=".88" stop-color="#c600d0"/>
    </linearGradient>
  </defs>
  <g>
    <path class="cls-1" d="m292.3,146.97l-21.1-82.08c-1.26-4.91-5.45-7.12-9.31-4.89l-77.74,44.88c-3.86,2.23-8.86.66-11.13-3.46l-4.67-8.53c-2.26-4.13-7.27-5.68-11.12-3.45l-44.11,25.47c-3.86,2.23-5.98,8.07-4.71,12.99l28.04,109.07c1.26,4.91,5.45,7.12,9.31,4.89l141.83-81.89c3.86-2.23,5.98-8.07,4.72-12.99Z"/>
    <path class="cls-2" d="m389.05,212.12l-85.58-49.41c-3.86-2.23-10.15-2.23-13.98,0l-140.9,81.89c-3.83,2.23-3.81,5.87.05,8.1l85.58,49.41c3.86,2.23,10.15,2.23,13.98,0l140.91-81.88c3.83-2.23,3.81-5.87-.04-8.1Zm-211.98,42.19l-5.8-3.35c-1.16-.67-1.17-1.76-.02-2.43l125.09-72.69c1.15-.67,3.04-.67,4.2,0l5.8,3.35c1.16.67,1.16,1.76.01,2.43l-125.09,72.7c-1.15.67-3.03.67-4.19,0Zm14.55,8.4l-5.8-3.35c-1.16-.67-1.16-1.76-.01-2.43l125.09-72.7c1.15-.67,3.03-.67,4.19,0l5.8,3.35c1.16.67,1.17,1.76.02,2.43l-125.09,72.69c-1.15.67-3.03.67-4.2,0Zm140.88-19.09l-44.08,25.62c-1.15.67-3.04.67-4.2,0l-26.66-15.39c-1.15-.67-1.16-1.76,0-2.43l44.08-25.62c1.15-.67,3.04-.67,4.19,0l26.66,15.39c1.15.67,1.16,1.76.01,2.43Zm2.95-45.21l-125.09,72.69c-1.15.67-3.04.67-4.19,0l-5.81-3.35c-1.16-.67-1.16-1.76-.01-2.43l125.09-72.7c1.15-.67,3.04-.67,4.19,0l5.81,3.35c1.15.67,1.16,1.76.01,2.43Z"/>
  </g>
  <g>
    <path class="cls-2" d="m137.41,376.36v-56.7h16.04v56.7h-16.04Z"/>
    <path class="cls-2" d="m183.42,376.36v-43.98h-17.42v-12.72h50.79v12.72h-17.33v43.98h-16.04Z"/>
    <path class="cls-2" d="m245.14,363.97h29.65v12.39h-45.52v-56.7h44.47v12.39h-28.59v31.91Zm-1.13-22.36h26.33v11.99h-26.33v-11.99Z"/>
    <path class="cls-2" d="m290.18,376.36v-56.7h13.2l23.49,38.56h-6.97l22.84-38.56h13.2l.16,56.7h-14.74l-.16-34.26h2.51l-17.09,28.67h-7.13l-17.58-28.67h3.08v34.26h-14.82Z"/>
    <path class="cls-2" d="m135.66,426.36v-39.22h17.93c3.58,0,6.68.58,9.27,1.74,2.6,1.16,4.6,2.83,6.02,5.01,1.42,2.18,2.13,4.77,2.13,7.76s-.71,5.51-2.13,7.68c-1.42,2.17-3.43,3.84-6.02,5.01-2.6,1.18-5.69,1.76-9.27,1.76h-11.77l4.93-4.82v15.07h-11.09Zm11.09-13.89l-4.93-5.1h11.09c2.32,0,4.04-.5,5.18-1.51,1.14-1.01,1.71-2.41,1.71-4.2s-.57-3.25-1.71-4.26c-1.14-1.01-2.87-1.51-5.18-1.51h-11.09l4.93-5.1v21.68Z"/>
    <path class="cls-2" d="m176.39,426.36v-39.22h11.09v30.42h18.71v8.8h-29.8Z"/>
    <path class="cls-2" d="m206.25,426.36l17.31-39.22h10.92l17.37,39.22h-11.54l-13.56-33.78h4.37l-13.56,33.78h-11.32Zm9.47-7.62l2.86-8.18h19.16l2.86,8.18h-24.88Z"/>
    <path class="cls-2" d="m261.38,426.36v-30.42h-12.05v-8.8h35.13v8.8h-11.99v30.42h-11.09Z"/>
    <path class="cls-2" d="m299.59,417.79h20.5v8.57h-31.49v-39.22h30.76v8.57h-19.78v22.07Zm-.78-15.46h18.21v8.29h-18.21v-8.29Z"/>
    <path class="cls-2" d="m340.04,427.15c-3.21,0-6.3-.4-9.27-1.2s-5.39-1.84-7.25-3.11l3.64-8.18c1.75,1.12,3.78,2.04,6.08,2.77,2.3.73,4.58,1.09,6.86,1.09,1.53,0,2.76-.14,3.7-.42s1.62-.65,2.04-1.12c.43-.47.64-1.02.64-1.65,0-.9-.41-1.61-1.23-2.13-.82-.52-1.89-.95-3.19-1.29-1.31-.34-2.75-.67-4.34-1.01-1.59-.34-3.17-.76-4.76-1.29-1.59-.52-3.03-1.21-4.34-2.04-1.31-.84-2.37-1.94-3.19-3.31-.82-1.36-1.23-3.09-1.23-5.18,0-2.35.64-4.48,1.93-6.39,1.29-1.9,3.22-3.44,5.8-4.59,2.58-1.16,5.79-1.74,9.64-1.74,2.58,0,5.11.29,7.59.87,2.48.58,4.7,1.43,6.64,2.55l-3.42,8.24c-1.87-1.01-3.72-1.76-5.55-2.27s-3.6-.76-5.32-.76c-1.53,0-2.76.16-3.7.48-.93.32-1.61.74-2.02,1.26-.41.52-.62,1.12-.62,1.79,0,.86.4,1.54,1.21,2.04.8.5,1.87.92,3.19,1.23,1.33.32,2.78.64,4.37.98,1.59.34,3.17.76,4.76,1.26,1.59.5,3.03,1.18,4.34,2.02,1.31.84,2.36,1.94,3.17,3.31.8,1.36,1.2,3.07,1.2,5.13,0,2.28-.64,4.38-1.93,6.3-1.29,1.92-3.21,3.46-5.77,4.62-2.56,1.16-5.78,1.74-9.66,1.74Z"/>
  </g>
</svg>